<svg width="29" height="27" viewBox="0 0 29 27" fill="none" xmlns="http://www.w3.org/2000/svg">
<path fill-rule="evenodd" clip-rule="evenodd" d="M27.8382 2.63388C27.9313 2.72677 28.0052 2.83712 28.0556 2.95861C28.106 3.0801 28.132 3.21034 28.132 3.34188C28.132 3.47341 28.106 3.60365 28.0556 3.72514C28.0052 3.84663 27.9313 3.95698 27.8382 4.04988L13.8382 18.0499C13.7453 18.143 13.6349 18.2169 13.5134 18.2673C13.3919 18.3177 13.2617 18.3437 13.1302 18.3437C12.9986 18.3437 12.8684 18.3177 12.7469 18.2673C12.6254 18.2169 12.5151 18.143 12.4222 18.0499L6.42217 12.0499C6.32919 11.9569 6.25544 11.8465 6.20512 11.725C6.1548 11.6036 6.12891 11.4734 6.12891 11.3419C6.12891 11.2104 6.1548 11.0802 6.20512 10.9587C6.25544 10.8372 6.32919 10.7269 6.42217 10.6339C6.51515 10.5409 6.62552 10.4671 6.747 10.4168C6.86848 10.3665 6.99868 10.3406 7.13017 10.3406C7.26166 10.3406 7.39186 10.3665 7.51334 10.4168C7.63482 10.4671 7.74519 10.5409 7.83817 10.6339L13.1302 15.9279L26.4222 2.63388C26.5151 2.54075 26.6254 2.46686 26.7469 2.41645C26.8684 2.36604 26.9986 2.34009 27.1302 2.34009C27.2617 2.34009 27.3919 2.36604 27.5134 2.41645C27.6349 2.46686 27.7453 2.54075 27.8382 2.63388Z" fill="#2DC071"/>
<path fill-rule="evenodd" clip-rule="evenodd" d="M13.1289 2.34178C10.9533 2.34178 8.82659 2.98691 7.01765 4.19561C5.20871 5.40431 3.79881 7.12227 2.96625 9.13226C2.13369 11.1422 1.91585 13.354 2.34029 15.4878C2.76472 17.6216 3.81237 19.5816 5.35075 21.12C6.88913 22.6583 8.84914 23.706 10.9829 24.1304C13.1167 24.5549 15.3285 24.337 17.3384 23.5045C19.3484 22.6719 21.0664 21.262 22.2751 19.4531C23.4838 17.6441 24.1289 15.5174 24.1289 13.3418C24.1289 13.0766 24.2343 12.8222 24.4218 12.6347C24.6094 12.4471 24.8637 12.3418 25.1289 12.3418C25.3941 12.3418 25.6485 12.4471 25.836 12.6347C26.0236 12.8222 26.1289 13.0766 26.1289 13.3418C26.1286 16.2035 25.184 18.985 23.4416 21.2552C21.6993 23.5253 19.2566 25.1571 16.4924 25.8975C13.7281 26.6379 10.7968 26.4455 8.15308 25.3501C5.50932 24.2548 3.30085 22.3178 1.87018 19.8394C0.4395 17.361 -0.133437 14.4798 0.240223 11.6426C0.613883 8.80547 1.91326 6.17087 3.93683 4.14742C5.96041 2.12398 8.59509 0.824774 11.4323 0.451296C14.2695 0.077818 17.1506 0.650939 19.6289 2.08178C19.7484 2.14429 19.8541 2.23033 19.9394 2.33473C20.0248 2.43912 20.0882 2.55971 20.1258 2.68924C20.1634 2.81877 20.1744 2.95456 20.1581 3.08844C20.1418 3.22233 20.0987 3.35154 20.0312 3.4683C19.9637 3.58507 19.8733 3.68698 19.7654 3.76789C19.6575 3.84881 19.5343 3.90706 19.4033 3.93915C19.2723 3.97123 19.1362 3.97649 19.0031 3.9546C18.87 3.93271 18.7427 3.88413 18.6289 3.81178C16.9574 2.84516 15.0598 2.338 13.1289 2.34178Z" fill="#2DC071"/>
</svg>
